<svg xmlns="http://www.w3.org/2000/svg" version="1.1" xmlns:xlink="http://www.w3.org/1999/xlink" xmlns:svgjs="http://svgjs.com/svgjs" width="1920" height="1080" preserveAspectRatio="none" viewBox="0 0 1920 1080"><g mask="url(&quot;#SvgjsMask1012&quot;)" fill="none"><rect width="1920" height="1080" x="0" y="0" fill="rgba(48, 48, 48, 1)"></rect><path d="M31 1080L1111 0L1606 0L526 1080z" fill="url(#SvgjsLinearGradient1013)"></path><path d="M679.6 1080L1759.6 0L2196.1 0L1116.1 1080z" fill="url(#SvgjsLinearGradient1013)"></path><path d="M1893 1080L813 0L-21 0L1059 1080z" fill="url(#SvgjsLinearGradient1014)"></path><path d="M1185.4 1080L105.40000000000009 0L-628.0999999999999 0L451.9000000000001 1080z" fill="url(#SvgjsLinearGradient1014)"></path><path d="M1019.5338402814335 1080L1920 179.53384028143353L1920 1080z" fill="url(#SvgjsLinearGradient1013)"></path><path d="M0 1080L900.4661597185665 1080L 0 179.53384028143353z" fill="url(#SvgjsLinearGradient1014)"></path></g><defs><mask id="SvgjsMask1012"><rect width="1920" height="1080" fill="#ffffff"></rect></mask><linearGradient x1="0%" y1="100%" x2="100%" y2="0%" id="SvgjsLinearGradient1013"><stop stop-color="rgba(99, 99, 99, 1)" offset="0"></stop><stop stop-opacity="0" stop-color="rgba(99, 99, 99, 1)" offset="0.66"></stop></linearGradient><linearGradient x1="100%" y1="100%" x2="0%" y2="0%" id="SvgjsLinearGradient1014"><stop stop-color="rgba(99, 99, 99, 1)" offset="0"></stop><stop stop-opacity="0" stop-color="rgba(99, 99, 99, 1)" offset="0.66"></stop></linearGradient></defs></svg>